<svg xmlns="http://www.w3.org/2000/svg" viewBox="0 8.369999885559082 39.84000015258789 42.46000289916992" data-asc="1.0087890625" width="39.84000015258789" height="42.46000289916992"><defs/><g><g fill="#000000"><g transform="translate(0, 0)"><path d="M9.33 50.83Q8.45 50.83 7.24 50.56Q6.03 50.29 4.77 49.51Q3.52 48.73 2.43 47.19Q1.34 45.65 0.67 43.14Q0 40.63 0 36.87L0 22.09Q0 18.33 0.71 15.83Q1.42 13.33 2.58 11.83Q3.74 10.33 5.15 9.58Q6.57 8.84 7.98 8.61Q9.40 8.37 10.60 8.37Q13.99 8.37 15.98 9.57Q17.97 10.77 18.84 12.78Q19.70 14.79 19.70 17.21Q19.70 18.55 19.51 19.69Q19.31 20.83 19.04 22.19L14.16 22.19L14.16 20.19Q14.16 13.33 10.42 13.33Q8.42 13.33 7.52 14.83Q6.62 16.33 6.62 20.34L6.62 39.14Q6.62 43.02 7.54 44.45Q8.47 45.87 10.47 45.87Q12.57 45.87 13.53 43.84Q14.48 41.80 14.48 38.79L14.48 33.47L11.23 33.47L11.23 29.32L20.53 29.32L20.53 50.44L16.43 50.44L15.75 46.46Q14.87 48.19 13.16 49.51Q11.45 50.83 9.33 50.83ZM22.80 41.60Q22.80 40.28 22.97 38.62Q23.14 36.96 23.49 35.33L28.54 35.33L28.54 40.23Q28.54 43.46 29.14 44.67Q29.74 45.87 31.08 45.87Q32.23 45.87 32.87 44.87Q33.52 43.87 33.52 41.04L33.52 8.74L39.84 8.74L39.84 40.33Q39.84 44.65 38.59 46.91Q37.33 49.17 35.33 50Q33.33 50.83 31.08 50.83Q27.93 50.83 26.12 49.57Q24.32 48.32 23.56 46.22Q22.80 44.12 22.80 41.60Z"/></g></g></g></svg>